<svg width="132" height="11" viewBox="0 0 132 11" xmlns="http://www.w3.org/2000/svg">
<path d="M0.650024 0.613999V10H2.31402V1.511H2.32702L4.10802 10H5.38202L7.16302 1.498H7.17602V10H8.84002V0.613999H5.99302L4.74502 6.711L3.49702 0.613999H0.650024Z"/>
<path d="M9.56112 10H11.4721L12.0311 7.556H14.0461L14.4881 10H16.4121L14.3321 0.613999H11.9401L9.56112 10ZM12.2521 6.165L13.1101 1.797L13.8251 6.165H12.2521Z"/>
<path d="M17.1539 0.613999V10H18.9349V2.044H22.0809V0.613999H17.1539Z"/>
<path d="M21.7486 10H23.6596L24.2186 7.556H26.2336L26.6756 10H28.5996L26.5196 0.613999H24.1276L21.7486 10ZM24.4396 6.165L25.2976 1.797L26.0126 6.165H24.4396Z"/>
<path d="M30.9404 3.318C30.9404 2.473 31.3044 1.875 32.0064 1.875C32.7604 1.875 32.9944 2.564 32.9944 3.188C32.9944 4.02 32.4874 4.384 31.8244 4.384H31.4474V5.723H31.8244C32.5654 5.723 33.1244 6.126 33.1244 7.231C33.1244 8.206 32.8124 8.791 31.9544 8.791C31.0574 8.791 30.7974 8.154 30.7974 7.504H29.0684C29.0684 9.519 30.5244 10.221 32.0584 10.221C33.9174 10.221 34.9444 9.285 34.9444 7.4C34.9444 5.983 34.3074 5.216 33.3714 4.982C34.2294 4.761 34.8144 3.916 34.8144 2.941C34.8144 1.043 33.2674 0.445 32.0064 0.445C30.2384 0.445 29.2114 1.68 29.2114 3.318H30.9404Z"/>
<path d="M36.1842 0.613999V10H38.1082L40.7082 3.188H40.7212C40.5392 4.033 40.5002 5.021 40.5002 6.451V10H42.1642V0.613999H40.2402L37.6402 7.439H37.6272C37.7962 6.659 37.8482 5.242 37.8482 4.124V0.613999H36.1842Z"/>
<path d="M45.2396 0.613999H43.4586V10H45.2396V5.658H47.5926V10H49.3736V0.613999H47.5926V4.228H45.2396V0.613999Z"/>
<path d="M53.7926 0.613999V10H55.7166L58.3166 3.188H58.3296C58.1476 4.033 58.1086 5.021 58.1086 6.451V10H59.7726V0.613999H57.8486L55.2486 7.439H55.2356C55.4046 6.659 55.4566 5.242 55.4566 4.124V0.613999H53.7926Z"/>
<path d="M62.848 0.613999H61.067V10H62.848V5.658H65.201V10H66.982V0.613999H65.201V4.228H62.848V0.613999Z"/>
<path d="M73.946 3.669V3.201C73.946 1.472 72.958 0.445 71.138 0.445C69.201 0.445 68.213 1.472 68.213 3.669V7.088C68.213 8.752 68.772 10.221 71.112 10.221C73.335 10.221 73.946 8.765 73.946 7.062V6.659H72.165V7.166C72.165 8.375 71.814 8.791 71.099 8.791C70.345 8.791 70.033 8.388 70.033 7.166V3.461C70.033 2.278 70.358 1.875 71.112 1.875C71.866 1.875 72.165 2.278 72.165 3.461V3.669H73.946Z"/>
<path d="M78.7592 2.044H80.9692V0.613999H74.7682V2.044H76.9782V10H78.7592V2.044Z"/>
<path d="M83.6302 6.178H85.1902C86.7112 6.178 87.6862 4.904 87.6862 3.357C87.6862 1.849 86.7372 0.613999 85.2162 0.613999H81.8492V10H83.6302V6.178ZM83.6302 2.005H84.5272C85.4242 2.005 85.8662 2.499 85.8662 3.383C85.8662 4.28 85.4242 4.787 84.5272 4.787H83.6302V2.005Z"/>
<path d="M88.3745 0.613999L90.9485 8.037C90.7665 8.57 90.5065 8.791 90.1555 8.791C89.9215 8.791 89.7655 8.713 89.6615 8.687V10.052C89.9735 10.156 90.3245 10.221 90.7405 10.221C91.6115 10.221 92.1705 9.688 92.6645 8.206L95.2125 0.613999H93.2625L91.8195 5.593L90.3765 0.613999H88.3745Z"/>
<path d="M95.9664 0.613999V10H97.6304V1.511H97.6434L99.4244 10H100.698L102.479 1.498H102.492V10H104.156V0.613999H101.309L100.061 6.711L98.8134 0.613999H95.9664Z"/>
<path d="M105.463 0.613999V10H110.481V8.57H107.244V5.658H110.195V4.228H107.244V2.044H110.481V0.613999H105.463Z"/>
<path d="M113.375 0.613999H111.594V10H113.375V5.658H115.728V10H117.509V0.613999H115.728V4.228H113.375V0.613999Z"/>
<path d="M122.38 2.044H124.59V0.613999H118.389V2.044H120.599V10H122.38V2.044Z"/>
<path d="M124.403 10H126.314L126.873 7.556H128.888L129.33 10H131.254L129.174 0.613999H126.782L124.403 10ZM127.094 6.165L127.952 1.797L128.667 6.165H127.094Z"/>
</svg>
