<svg width="95" height="95" viewBox="0 0 95 95" xmlns="http://www.w3.org/2000/svg">
<path d="M14.8913 32.7275C19.323 29.2838 22.9995 31.6588 27.9063 37.3398C28.4573 37.981 29.1983 37.2305 29.621 36.8648C30.039 36.4943 36.5133 30.666 36.8315 30.4C37.145 30.1198 37.525 29.5973 37.0263 29.013C35.8249 27.5269 34.6483 26.021 33.497 24.4958C24.909 13.262 56.9905 5.643 52.0648 5.52425C49.5568 5.45775 39.4963 5.339 37.9905 5.50525C31.8963 6.1465 24.244 11.8418 20.3918 14.497C15.352 17.9455 13.471 19.969 13.1623 20.2493C11.7373 21.4938 12.9343 24.3675 10.3503 26.6333C7.61901 29.0225 5.91376 27.2128 4.33201 28.5998C3.54826 29.2933 1.35376 30.9367 0.726763 31.483C0.095013 32.0387 -0.018987 32.9745 0.627013 33.7203C0.627013 33.7203 6.63101 40.3513 7.13451 40.9403C7.63326 41.5198 8.99176 42.0232 9.82776 41.2775C10.6685 40.5365 12.8298 38.6508 13.1908 38.3183C13.5613 38.0048 12.9533 34.2285 14.8913 32.7275V32.7275ZM42.0043 35.1833C41.4343 34.523 40.7265 34.504 40.1185 35.0455L33.307 40.9925C33.044 41.2311 32.8838 41.5624 32.8599 41.9166C32.8359 42.2709 32.9503 42.6207 33.1788 42.8925L72.5753 87.7278C73.4968 88.787 75.0928 88.8962 76.1425 87.9795L80.75 84.1177C81.2572 83.6712 81.5676 83.0425 81.6138 82.3683C81.6601 81.6941 81.4384 81.0289 80.997 80.5173L42.0043 35.1833ZM94.5345 16.1025C94.183 13.756 92.967 14.2453 92.3353 15.238C91.7035 16.2403 88.9105 20.4725 87.761 22.3915C86.621 24.2915 83.809 28.0488 78.5745 24.339C73.1215 20.4868 75.0168 17.7983 75.9668 15.9885C76.9215 14.1693 79.8523 9.06775 80.275 8.436C80.6978 7.79475 80.2038 5.93275 78.5128 6.71175C76.817 7.49075 66.5285 11.5805 65.1035 17.4468C63.6453 23.4128 66.3243 28.747 61.066 34.0433L54.6868 40.6933L61.0945 48.1318L68.951 40.6742C70.8225 38.7932 74.822 36.9645 78.4415 37.791C86.1983 39.5438 90.4305 36.632 92.9813 31.8155C95.2708 27.512 94.8908 18.449 94.5345 16.1025V16.1025ZM13.0103 81.0017C12.5351 81.4804 12.2685 82.1275 12.2685 82.802C12.2685 83.4765 12.5351 84.1236 13.0103 84.6023L17.5275 89.0197C18.5155 90.0125 20.083 89.5945 21.071 88.6018L44.3793 65.6878L37.24 57.5462L13.0103 81.0017V81.0017Z" />
</svg>
